<svg width="12" height="16" viewBox="0 0 12 16" fill="none" xmlns="http://www.w3.org/2000/svg">
<path d="M7.86195 1.9449V0H1.39545C0.6246 0 0 0.62505 0 1.39545V14.5638C0 15.3347 0.6246 15.9593 1.39545 15.9593H9.7209C10.4918 15.9593 11.1164 15.3342 11.1164 14.5638V3.2544H9.17145C8.4492 3.2544 7.86195 2.6667 7.86195 1.9449ZM8.7453 11.8454H2.37105C2.304 11.8454 2.25 11.7914 2.25 11.7243V11.2635C2.25 11.1965 2.30445 11.1425 2.37105 11.1425H8.7453C8.81235 11.1425 8.86635 11.1969 8.86635 11.2635V11.7243C8.86635 11.7914 8.8119 11.8454 8.7453 11.8454ZM8.7453 9.20745H2.37105C2.304 9.20745 2.25 9.153 2.25 9.08595V8.6256C2.25 8.55855 2.30445 8.50455 2.37105 8.50455H8.7453C8.81235 8.50455 8.86635 8.559 8.86635 8.6256V9.08595C8.86635 9.153 8.8119 9.20745 8.7453 9.20745ZM8.7453 6.57H2.37105C2.304 6.57 2.25 6.51555 2.25 6.44895V5.98815C2.25 5.9211 2.30445 5.8671 2.37105 5.8671H8.7453C8.81235 5.8671 8.86635 5.92155 8.86635 5.98815V6.44895C8.86635 6.516 8.8119 6.57 8.7453 6.57Z" fill="#A3A9B6"/>
</svg>
