<svg width="14" height="14" viewBox="0 0 14 14" fill="none" xmlns="http://www.w3.org/2000/svg">
<path d="M6.87126 6.45041e-07H10.3791C10.7744 -1.2766e-05 11.1154 -2.43885e-05 11.3962 0.0229314C11.6926 0.0471687 11.9873 0.100683 12.271 0.245237C12.6936 0.460538 13.0388 0.804181 13.2549 1.22836C13.3994 1.512 13.4529 1.80679 13.4771 2.10297C13.5 2.38361 13.5 2.72423 13.5 3.11879V10.3816C13.5 10.7761 13.5 11.1166 13.4771 11.3971C13.4529 11.6933 13.3994 11.9878 13.2549 12.2714C13.039 12.6952 12.694 13.0394 12.271 13.2549C11.9875 13.3994 11.6929 13.4529 11.3968 13.4771C11.1162 13.5 10.7758 13.5 10.3812 13.5H6.86879C6.47423 13.5 6.13361 13.5 5.85297 13.4771C5.55679 13.4529 5.262 13.3994 4.97835 13.2549C4.55433 13.0389 4.21062 12.6939 3.99524 12.2712C3.85066 11.9874 3.79716 11.6926 3.77293 11.3961C3.74997 11.1153 3.74999 10.7743 3.75 10.3789L3.75 10.3125C3.75 9.89829 4.08579 9.5625 4.5 9.5625C4.91421 9.5625 5.25 9.89829 5.25 10.3125V10.35C5.25 10.7824 5.25058 11.0615 5.26794 11.274C5.28458 11.4776 5.31283 11.5531 5.33175 11.5902C5.40399 11.732 5.51887 11.8468 5.65934 11.9184C5.69625 11.9372 5.77166 11.9654 5.97514 11.9821C6.18735 11.9994 6.4661 12 6.89768 12H10.3523C10.7839 12 11.0625 11.9994 11.2745 11.9821C11.4777 11.9655 11.5531 11.9373 11.5901 11.9184C11.7316 11.8463 11.8467 11.7312 11.9184 11.5904C11.9373 11.5534 11.9655 11.4781 11.9821 11.2749C11.9994 11.0629 12 10.7843 12 10.3527V3.14768C12 2.7161 11.9994 2.43735 11.9821 2.22515C11.9654 2.02166 11.9372 1.94625 11.9184 1.90934C11.8469 1.76903 11.732 1.65407 11.5901 1.58175C11.5529 1.56281 11.4774 1.53458 11.2739 1.51794C11.0616 1.50059 10.7826 1.5 10.3501 1.5H6.90015C6.46774 1.5 6.18844 1.50058 5.97585 1.51795C5.77196 1.5346 5.69638 1.56287 5.65934 1.58175C5.51822 1.65365 5.40365 1.76822 5.33175 1.90934C5.31287 1.94638 5.2846 2.02196 5.26795 2.22585C5.25058 2.43844 5.25 2.71774 5.25 3.15015V3.18644C5.25 3.60066 4.91421 3.93644 4.5 3.93644C4.08579 3.93644 3.75 3.60066 3.75 3.18644L3.75 3.12125C3.74999 2.72588 3.74997 2.38474 3.77293 2.10374C3.79714 1.80721 3.85062 1.51218 3.99524 1.22836C4.21095 0.804991 4.55499 0.460952 4.97835 0.245237C5.26218 0.100619 5.55721 0.0471465 5.85374 0.0229269C6.13474 -2.42991e-05 6.47588 -1.2766e-05 6.87126 6.45041e-07Z" fill="#333333"/>
<path d="M6.21967 3.96967C6.51256 3.67678 6.98744 3.67678 7.28033 3.96967L9.53033 6.21967C9.82322 6.51256 9.82322 6.98744 9.53033 7.28033L7.28033 9.53033C6.98744 9.82323 6.51256 9.82323 6.21967 9.53033C5.92678 9.23744 5.92678 8.76257 6.21967 8.46967L7.18934 7.5H0.75C0.335786 7.5 0 7.16422 0 6.75C0 6.33579 0.335786 6 0.75 6H7.18934L6.21967 5.03033C5.92678 4.73744 5.92678 4.26256 6.21967 3.96967Z" fill="#333333"/>
</svg>
