<svg width="15" height="15" viewBox="0 0 15 15" fill="none" xmlns="http://www.w3.org/2000/svg">
<path d="M13.675 0L14.85 1.175L11.1 4.925H14.0917V6.59167H8.25833V0.758333H9.925V3.75L13.675 0ZM14.85 13.675L13.675 14.85L9.925 11.1V14.0917H8.25833V8.25833H14.0917V9.925H11.1L14.85 13.675ZM1.175 0L4.925 3.75V0.758333H6.59167V6.59167H0.758333V4.925H3.75L0 1.175L1.175 0ZM0 13.675L3.75 9.925H0.758333V8.25833H6.59167V14.0917H4.925V11.1L1.175 14.85L0 13.675Z" fill="#00481D"/>
<path d="M13.675 0L14.85 1.175L11.1 4.925H14.0917V6.59167H8.25833V0.758333H9.925V3.75L13.675 0ZM14.85 13.675L13.675 14.85L9.925 11.1V14.0917H8.25833V8.25833H14.0917V9.925H11.1L14.85 13.675ZM1.175 0L4.925 3.75V0.758333H6.59167V6.59167H0.758333V4.925H3.75L0 1.175L1.175 0ZM0 13.675L3.75 9.925H0.758333V8.25833H6.59167V14.0917H4.925V11.1L1.175 14.85L0 13.675Z" fill="#A3A9B6" fill-opacity="0.2"/>
<path d="M13.675 0L14.85 1.175L11.1 4.925H14.0917V6.59167H8.25833V0.758333H9.925V3.75L13.675 0ZM14.85 13.675L13.675 14.85L9.925 11.1V14.0917H8.25833V8.25833H14.0917V9.925H11.1L14.85 13.675ZM1.175 0L4.925 3.75V0.758333H6.59167V6.59167H0.758333V4.925H3.75L0 1.175L1.175 0ZM0 13.675L3.75 9.925H0.758333V8.25833H6.59167V14.0917H4.925V11.1L1.175 14.85L0 13.675Z" fill="#A3A9B6" fill-opacity="0.2"/>
<path d="M13.675 0L14.85 1.175L11.1 4.925H14.0917V6.59167H8.25833V0.758333H9.925V3.75L13.675 0ZM14.85 13.675L13.675 14.85L9.925 11.1V14.0917H8.25833V8.25833H14.0917V9.925H11.1L14.85 13.675ZM1.175 0L4.925 3.75V0.758333H6.59167V6.59167H0.758333V4.925H3.75L0 1.175L1.175 0ZM0 13.675L3.75 9.925H0.758333V8.25833H6.59167V14.0917H4.925V11.1L1.175 14.85L0 13.675Z" fill="#A3A9B6" fill-opacity="0.2"/>
<path d="M13.675 0L14.85 1.175L11.1 4.925H14.0917V6.59167H8.25833V0.758333H9.925V3.75L13.675 0ZM14.85 13.675L13.675 14.85L9.925 11.1V14.0917H8.25833V8.25833H14.0917V9.925H11.1L14.85 13.675ZM1.175 0L4.925 3.75V0.758333H6.59167V6.59167H0.758333V4.925H3.75L0 1.175L1.175 0ZM0 13.675L3.75 9.925H0.758333V8.25833H6.59167V14.0917H4.925V11.1L1.175 14.85L0 13.675Z" fill="#A3A9B6" fill-opacity="0.2"/>
<path d="M13.675 0L14.85 1.175L11.1 4.925H14.0917V6.59167H8.25833V0.758333H9.925V3.75L13.675 0ZM14.85 13.675L13.675 14.85L9.925 11.1V14.0917H8.25833V8.25833H14.0917V9.925H11.1L14.85 13.675ZM1.175 0L4.925 3.75V0.758333H6.59167V6.59167H0.758333V4.925H3.75L0 1.175L1.175 0ZM0 13.675L3.75 9.925H0.758333V8.25833H6.59167V14.0917H4.925V11.1L1.175 14.85L0 13.675Z" fill="#A3A9B6" fill-opacity="0.2"/>
<path d="M13.675 0L14.85 1.175L11.1 4.925H14.0917V6.59167H8.25833V0.758333H9.925V3.75L13.675 0ZM14.85 13.675L13.675 14.85L9.925 11.1V14.0917H8.25833V8.25833H14.0917V9.925H11.1L14.85 13.675ZM1.175 0L4.925 3.75V0.758333H6.59167V6.59167H0.758333V4.925H3.75L0 1.175L1.175 0ZM0 13.675L3.75 9.925H0.758333V8.25833H6.59167V14.0917H4.925V11.1L1.175 14.85L0 13.675Z" fill="#A3A9B6" fill-opacity="0.2"/>
<path d="M13.675 0L14.85 1.175L11.1 4.925H14.0917V6.59167H8.25833V0.758333H9.925V3.75L13.675 0ZM14.85 13.675L13.675 14.85L9.925 11.1V14.0917H8.25833V8.25833H14.0917V9.925H11.1L14.85 13.675ZM1.175 0L4.925 3.75V0.758333H6.59167V6.59167H0.758333V4.925H3.75L0 1.175L1.175 0ZM0 13.675L3.75 9.925H0.758333V8.25833H6.59167V14.0917H4.925V11.1L1.175 14.85L0 13.675Z" fill="#A3A9B6" fill-opacity="0.2"/>
<path d="M13.675 0L14.85 1.175L11.1 4.925H14.0917V6.59167H8.25833V0.758333H9.925V3.75L13.675 0ZM14.85 13.675L13.675 14.85L9.925 11.1V14.0917H8.25833V8.25833H14.0917V9.925H11.1L14.85 13.675ZM1.175 0L4.925 3.75V0.758333H6.59167V6.59167H0.758333V4.925H3.75L0 1.175L1.175 0ZM0 13.675L3.75 9.925H0.758333V8.25833H6.59167V14.0917H4.925V11.1L1.175 14.85L0 13.675Z" fill="#A3A9B6" fill-opacity="0.2"/>
<path d="M13.675 0L14.85 1.175L11.1 4.925H14.0917V6.59167H8.25833V0.758333H9.925V3.75L13.675 0ZM14.85 13.675L13.675 14.85L9.925 11.1V14.0917H8.25833V8.25833H14.0917V9.925H11.1L14.85 13.675ZM1.175 0L4.925 3.75V0.758333H6.59167V6.59167H0.758333V4.925H3.75L0 1.175L1.175 0ZM0 13.675L3.75 9.925H0.758333V8.25833H6.59167V14.0917H4.925V11.1L1.175 14.85L0 13.675Z" fill="#A3A9B6" fill-opacity="0.2"/>
<path d="M13.675 0L14.85 1.175L11.1 4.925H14.0917V6.59167H8.25833V0.758333H9.925V3.75L13.675 0ZM14.85 13.675L13.675 14.85L9.925 11.1V14.0917H8.25833V8.25833H14.0917V9.925H11.1L14.85 13.675ZM1.175 0L4.925 3.75V0.758333H6.59167V6.59167H0.758333V4.925H3.75L0 1.175L1.175 0ZM0 13.675L3.75 9.925H0.758333V8.25833H6.59167V14.0917H4.925V11.1L1.175 14.85L0 13.675Z" fill="#A3A9B6" fill-opacity="0.2"/>
</svg>
