<svg width="208" height="110" viewBox="0 0 208 110" fill="none" xmlns="http://www.w3.org/2000/svg">
<path d="M208 2.16504L204.25 4.3301L204.25 -2.45087e-05L208 2.16504ZM80.8318 55.5401L-3.57102e-06 55.54L-3.52084e-06 54.79L80.8318 54.7901L80.8318 55.5401ZM204.625 2.54004L144.795 2.54004L144.795 1.79004L204.625 1.79004L204.625 2.54004ZM127.503 10.8626L98.7098 46.9354L98.1236 46.4675L126.917 10.3947L127.503 10.8626ZM144.795 2.54004C138.066 2.54004 131.702 5.60295 127.503 10.8626L126.917 10.3947C131.258 4.95678 137.837 1.79004 144.795 1.79004L144.795 2.54004ZM80.8318 54.7901C87.5615 54.7901 93.9254 51.7271 98.1236 46.4675L98.7098 46.9354C94.3692 52.3733 87.7896 55.5401 80.8318 55.5401L80.8318 54.7901Z" fill="#858D9D"/>
<path d="M208 106.883L204.25 104.718L204.25 109.048L208 106.883ZM80.9605 54.5078L-3.50411e-06 54.5078L-3.45394e-06 55.2578L80.9605 55.2578L80.9605 54.5078ZM204.625 106.508L144.667 106.508L144.667 107.258L204.625 107.258L204.625 106.508ZM127.504 98.3456L98.7049 62.9467L98.1231 63.42L126.922 98.8189L127.504 98.3456ZM144.667 106.508C138.009 106.508 131.705 103.51 127.504 98.3456L126.922 98.8189C131.266 104.158 137.783 107.258 144.667 107.258L144.667 106.508ZM80.9605 55.2578C87.618 55.2578 93.9216 58.2557 98.1231 63.42L98.7049 62.9467C94.361 57.6073 87.8437 54.5078 80.9605 54.5078L80.9605 55.2578Z" fill="#858D9D"/>
</svg>
