<svg width="58" height="59" viewBox="0 0 58 59" fill="none" xmlns="http://www.w3.org/2000/svg">
<circle cx="26.46" cy="32.4599" r="26.46" fill="#FFF1F0"/>
<path d="M16.1267 32.5497C16.1267 33.9863 16.6974 35.3641 17.7132 36.3799C18.729 37.3957 20.1068 37.9664 21.5434 37.9664C23.5451 38.041 25.4591 38.8066 26.96 40.1331C28.461 38.8066 30.375 38.041 32.3767 37.9664C33.8133 37.9664 35.191 37.3957 36.2069 36.3799C37.2227 35.3641 37.7934 33.9863 37.7934 32.5497V27.1331H32.3767C30.375 27.2076 28.461 27.9732 26.96 29.2997C25.4591 27.9732 23.5451 27.2076 21.5434 27.1331H16.1267V32.5497Z" stroke="#E6372B" stroke-width="1.625" stroke-linecap="round" stroke-linejoin="round"/>
<path d="M20.46 31.4664C22.085 31.4664 23.71 32.0081 23.71 33.6331C21.5434 33.6331 20.46 33.6331 20.46 31.4664Z" stroke="#E6372B" stroke-width="1.625" stroke-linecap="round" stroke-linejoin="round"/>
<path d="M33.46 31.4664C31.835 31.4664 30.21 32.0081 30.21 33.6331C32.3767 33.6331 33.46 33.6331 33.46 31.4664Z" stroke="#E6372B" stroke-width="1.625" stroke-linecap="round" stroke-linejoin="round"/>
<circle cx="46.9998" cy="11" r="10.5" fill="#7A44FF" stroke="#FAFAFA"/>
<mask id="mask0_1_377" style="mask-type:alpha" maskUnits="userSpaceOnUse" x="41" y="3" width="13" height="14">
<rect x="41" y="3.99988" width="13" height="13" fill="#D9D9D9"/>
</mask>
<g mask="url(#mask0_1_377)">
<path d="M41.5415 14.8334V13.3167C41.5415 13.0098 41.6205 12.7277 41.7785 12.4704C41.9365 12.2131 42.1464 12.0167 42.4082 11.8813C42.9679 11.6015 43.5366 11.3916 44.1144 11.2516C44.6922 11.1117 45.279 11.0417 45.8748 11.0417C46.4707 11.0417 47.0575 11.1117 47.6353 11.2516C48.213 11.3916 48.7818 11.6015 49.3415 11.8813C49.6033 12.0167 49.8132 12.2131 49.9712 12.4704C50.1292 12.7277 50.2082 13.0098 50.2082 13.3167V14.8334H41.5415ZM51.2915 14.8334V13.2084C51.2915 12.8112 51.1809 12.4298 50.9597 12.0641C50.7386 11.6985 50.4248 11.3848 50.0186 11.123C50.479 11.1772 50.9123 11.2697 51.3186 11.4006C51.7248 11.5315 52.104 11.6917 52.4561 11.8813C52.7811 12.0619 53.0294 12.2628 53.2009 12.4839C53.3724 12.7051 53.4582 12.9466 53.4582 13.2084V14.8334H51.2915ZM45.8748 10.5001C45.279 10.5001 44.7689 10.2879 44.3446 9.86362C43.9203 9.43932 43.7082 8.92925 43.7082 8.33341C43.7082 7.73758 43.9203 7.22751 44.3446 6.80321C44.7689 6.3789 45.279 6.16675 45.8748 6.16675C46.4707 6.16675 46.9807 6.3789 47.405 6.80321C47.8294 7.22751 48.0415 7.73758 48.0415 8.33341C48.0415 8.92925 47.8294 9.43932 47.405 9.86362C46.9807 10.2879 46.4707 10.5001 45.8748 10.5001ZM51.2915 8.33341C51.2915 8.92925 51.0794 9.43932 50.655 9.86362C50.2307 10.2879 49.7207 10.5001 49.1248 10.5001C49.0255 10.5001 48.8991 10.4888 48.7457 10.4662C48.5922 10.4437 48.4658 10.4188 48.3665 10.3917C48.6103 10.1029 48.7976 9.78237 48.9285 9.43029C49.0594 9.07821 49.1248 8.71258 49.1248 8.33341C49.1248 7.95425 49.0594 7.58862 48.9285 7.23654C48.7976 6.88446 48.6103 6.56397 48.3665 6.27508C48.4929 6.22994 48.6193 6.2006 48.7457 6.18706C48.8721 6.17352 48.9984 6.16675 49.1248 6.16675C49.7207 6.16675 50.2307 6.3789 50.655 6.80321C51.0794 7.22751 51.2915 7.73758 51.2915 8.33341ZM42.6248 13.7501H49.1248V13.3167C49.1248 13.2174 49.1 13.1272 49.0504 13.0459C49.0007 12.9647 48.9353 12.9015 48.854 12.8563C48.3665 12.6126 47.8745 12.4298 47.378 12.3079C46.8814 12.186 46.3804 12.1251 45.8748 12.1251C45.3693 12.1251 44.8682 12.186 44.3717 12.3079C43.8752 12.4298 43.3832 12.6126 42.8957 12.8563C42.8144 12.9015 42.749 12.9647 42.6993 13.0459C42.6497 13.1272 42.6248 13.2174 42.6248 13.3167V13.7501ZM45.8748 9.41675C46.1728 9.41675 46.4278 9.31067 46.6399 9.09852C46.8521 8.88637 46.9582 8.63133 46.9582 8.33341C46.9582 8.0355 46.8521 7.78046 46.6399 7.56831C46.4278 7.35616 46.1728 7.25008 45.8748 7.25008C45.5769 7.25008 45.3219 7.35616 45.1097 7.56831C44.8976 7.78046 44.7915 8.0355 44.7915 8.33341C44.7915 8.63133 44.8976 8.88637 45.1097 9.09852C45.3219 9.31067 45.5769 9.41675 45.8748 9.41675Z" fill="white"/>
</g>
</svg>
