<svg width="17" height="17" viewBox="0 0 17 17" fill="none" xmlns="http://www.w3.org/2000/svg">
<path d="M13.75 5.83333C15.3583 5.83333 16.6667 4.525 16.6667 2.91667C16.6667 1.30833 15.3583 0 13.75 0C12.1417 0 10.8333 1.30833 10.8333 2.91667C10.8333 4.525 12.1417 5.83333 13.75 5.83333ZM13.75 7.5C14.1667 7.5 14.5833 7.44167 15 7.325V12.5C15 14.8 13.1333 16.6667 10.8333 16.6667H4.16667C1.86667 16.6667 0 14.8 0 12.5V5.83333C0 3.53333 1.86667 1.66667 4.16667 1.66667H9.34167C9.225 2.08333 9.16667 2.5 9.16667 2.91667C9.16667 5.45 11.2167 7.5 13.75 7.5Z" fill="#A3A9B6"/>
</svg>
