<svg width="59" height="59" viewBox="0 0 59 59" fill="none" xmlns="http://www.w3.org/2000/svg">
<circle cx="26.46" cy="31.8301" r="26.46" fill="#D7EAFF"/>
<path d="M19.5215 26.3499H19.5324M19.5215 37.2136H19.5324M17.334 22.7286H34.834C36.0421 22.7286 37.0215 23.5393 37.0215 24.5393V28.1605C37.0215 29.1605 36.0421 29.9711 34.834 29.9711H17.334C16.1259 29.9711 15.1465 29.1605 15.1465 28.1605V24.5393C15.1465 23.5393 16.1259 22.7286 17.334 22.7286ZM17.334 33.5924H34.834C36.0421 33.5924 37.0215 34.403 37.0215 35.403V39.0243C37.0215 40.0243 36.0421 40.8349 34.834 40.8349H17.334C16.1259 40.8349 15.1465 40.0243 15.1465 39.0243V35.403C15.1465 34.403 16.1259 33.5924 17.334 33.5924Z" stroke="#1873DE" stroke-width="1.81062" stroke-linecap="round" stroke-linejoin="round"/>
<rect x="36.96" width="22" height="22" rx="11" fill="#E6372B"/>
<path d="M50.0222 9.43426L46.8972 12.8197M46.8972 9.43426L50.0222 12.8197M53.4597 11.8041C53.4597 15.1895 51.2722 16.8822 48.6722 17.864C48.5361 17.9139 48.3882 17.9115 48.2535 17.8572C45.6472 16.8822 43.4597 15.1895 43.4597 11.8041V7.06447C43.4597 6.8849 43.5256 6.71268 43.6428 6.5857C43.76 6.45872 43.919 6.38739 44.0847 6.38739C45.3347 6.38739 46.8972 5.57489 47.9847 4.54572C48.1171 4.42317 48.2856 4.35583 48.4597 4.35583C48.6339 4.35583 48.8023 4.42317 48.9347 4.54572C50.0285 5.58166 51.5847 6.38739 52.8347 6.38739C53.0005 6.38739 53.1594 6.45872 53.2767 6.5857C53.3939 6.71268 53.4597 6.8849 53.4597 7.06447V11.8041Z" stroke="#FFF8F7" stroke-width="0.739568" stroke-linecap="round" stroke-linejoin="round"/>
</svg>
