<svg width="53" height="53" viewBox="0 0 53 53" fill="none" xmlns="http://www.w3.org/2000/svg">
<circle cx="26.46" cy="26.46" r="26.46" fill="#D7EAFF"/>
<path d="M20.2725 20.1679H20.2834M20.2725 33.2929H20.2834M18.085 15.7929H35.585C36.7931 15.7929 37.7725 16.7723 37.7725 17.9804V22.3554C37.7725 23.5636 36.7931 24.5429 35.585 24.5429H18.085C16.8769 24.5429 15.8975 23.5636 15.8975 22.3554V17.9804C15.8975 16.7723 16.8769 15.7929 18.085 15.7929ZM18.085 28.9179H35.585C36.7931 28.9179 37.7725 29.8973 37.7725 31.1054V35.4804C37.7725 36.6886 36.7931 37.6679 35.585 37.6679H18.085C16.8769 37.6679 15.8975 36.6886 15.8975 35.4804V31.1054C15.8975 29.8973 16.8769 28.9179 18.085 28.9179Z" stroke="#1873DE" stroke-width="2.1875" stroke-linecap="round" stroke-linejoin="round"/>
</svg>
