<svg width="17" height="17" viewBox="0 0 17 17" fill="none" xmlns="http://www.w3.org/2000/svg">
<path d="M8.10778 11.25C7.33423 11.25 6.59236 10.9427 6.04538 10.3957C5.4984 9.84875 5.19111 9.10688 5.19111 8.33333C5.19111 7.55978 5.4984 6.81792 6.04538 6.27094C6.59236 5.72396 7.33423 5.41667 8.10778 5.41667C8.88132 5.41667 9.62319 5.72396 10.1702 6.27094C10.7172 6.81792 11.0244 7.55978 11.0244 8.33333C11.0244 9.10688 10.7172 9.84875 10.1702 10.3957C9.62319 10.9427 8.88132 11.25 8.10778 11.25ZM14.2994 9.14167C14.3328 8.875 14.3578 8.60833 14.3578 8.33333C14.3578 8.05833 14.3328 7.78333 14.2994 7.5L16.0578 6.14167C16.2161 6.01667 16.2578 5.79167 16.1578 5.60833L14.4911 2.725C14.3911 2.54167 14.1661 2.46667 13.9828 2.54167L11.9078 3.375C11.4744 3.05 11.0244 2.76667 10.4994 2.55833L10.1911 0.35C10.1578 0.15 9.98278 0 9.77444 0H6.44111C6.23278 0 6.05778 0.15 6.02444 0.35L5.71611 2.55833C5.19111 2.76667 4.74111 3.05 4.30778 3.375L2.23278 2.54167C2.04944 2.46667 1.82444 2.54167 1.72444 2.725L0.0577763 5.60833C-0.050557 5.79167 -0.000556918 6.01667 0.157776 6.14167L1.91611 7.5C1.88278 7.78333 1.85778 8.05833 1.85778 8.33333C1.85778 8.60833 1.88278 8.875 1.91611 9.14167L0.157776 10.525C-0.000556918 10.65 -0.050557 10.875 0.0577763 11.0583L1.72444 13.9417C1.82444 14.125 2.04944 14.1917 2.23278 14.125L4.30778 13.2833C4.74111 13.6167 5.19111 13.9 5.71611 14.1083L6.02444 16.3167C6.05778 16.5167 6.23278 16.6667 6.44111 16.6667H9.77444C9.98278 16.6667 10.1578 16.5167 10.1911 16.3167L10.4994 14.1083C11.0244 13.8917 11.4744 13.6167 11.9078 13.2833L13.9828 14.125C14.1661 14.1917 14.3911 14.125 14.4911 13.9417L16.1578 11.0583C16.2578 10.875 16.2161 10.65 16.0578 10.525L14.2994 9.14167Z" fill="#A3A9B6"/>
</svg>
